<svg xmlns="http://www.w3.org/2000/svg" xmlns:xlink="http://www.w3.org/1999/xlink" width="2048" zoomAndPan="magnify" viewBox="0 0 1536 1535.999932" height="2048" preserveAspectRatio="xMidYMid meet" version="1.0"><defs><clipPath id="e1a485264c"><path d="M 266 371.015625 L 1270 371.015625 L 1270 698 L 266 698 Z M 266 371.015625 " clip-rule="nonzero"/></clipPath><clipPath id="d5ccea645d"><path d="M 652 932 L 886 932 L 886 1165.265625 L 652 1165.265625 Z M 652 932 " clip-rule="nonzero"/></clipPath></defs><g clip-path="url(#e1a485264c)"><path fill="#1db647" d="M 1247.316406 569.574219 C 1119.566406 441.824219 949.574219 371.078125 767.972656 371.078125 C 586.371094 371.078125 416.382812 441.820312 288.628906 569.574219 C 259.066406 599.136719 259.066406 645.59375 288.628906 675.15625 C 303.410156 689.9375 322.417969 697.332031 341.421875 697.332031 C 360.421875 697.332031 379.429688 689.9375 394.210938 675.15625 C 493.453125 574.847656 626.492188 519.941406 767.972656 519.941406 C 909.453125 519.941406 1042.488281 574.847656 1141.734375 675.148438 C 1171.296875 704.710938 1217.753906 704.710938 1247.316406 675.148438 C 1276.886719 645.585938 1276.886719 598.074219 1247.316406 569.566406 Z M 1247.316406 569.574219 " fill-opacity="1" fill-rule="nonzero"/></g><path fill="#1db647" d="M 487.125 769.125 C 457.5625 798.6875 457.5625 845.144531 487.125 874.707031 C 501.90625 889.488281 520.914062 896.882812 539.914062 896.882812 C 558.917969 896.882812 577.925781 889.488281 592.707031 874.707031 C 689.84375 777.570312 847.160156 777.570312 943.238281 873.652344 C 971.75 903.21875 1019.257812 903.21875 1048.820312 873.652344 C 1078.386719 844.089844 1078.386719 797.636719 1048.820312 768.070312 C 893.617188 613.917969 642.328125 613.917969 487.125 769.125 Z M 487.125 769.125 " fill-opacity="1" fill-rule="nonzero"/><g clip-path="url(#d5ccea645d)"><path fill="#1db647" d="M 885.167969 1048.917969 C 885.167969 1113.058594 833.175781 1165.054688 769.023438 1165.054688 C 704.882812 1165.054688 652.886719 1113.058594 652.886719 1048.917969 C 652.886719 984.769531 704.882812 932.773438 769.023438 932.773438 C 833.171875 932.773438 885.167969 984.769531 885.167969 1048.917969 " fill-opacity="1" fill-rule="nonzero"/></g></svg>
